<mxfile host="app.diagrams.net" modified="2024-04-11T09:26:43.183Z" agent="Mozilla/5.0 (Macintosh; Intel Mac OS X 10_15_7) AppleWebKit/537.36 (KHTML, like Gecko) Chrome/123.0.0.0 Safari/537.36" etag="p07MAlTZZIxY1cyXYEVR" version="24.2.3" type="github">
  <diagram name="Page-1" id="pVyx7AFgYSGBUkXHzs9j">
    <mxGraphModel dx="1434" dy="756" grid="1" gridSize="10" guides="1" tooltips="1" connect="1" arrows="1" fold="1" page="1" pageScale="1" pageWidth="850" pageHeight="1100" math="0" shadow="0">
      <root>
        <mxCell id="0" />
        <mxCell id="1" parent="0" />
        <mxCell id="62KSsjE5slRflY_eG6V0-4" style="edgeStyle=orthogonalEdgeStyle;rounded=0;orthogonalLoop=1;jettySize=auto;html=1;" edge="1" parent="1" source="62KSsjE5slRflY_eG6V0-1" target="62KSsjE5slRflY_eG6V0-3">
          <mxGeometry relative="1" as="geometry" />
        </mxCell>
        <mxCell id="62KSsjE5slRflY_eG6V0-1" value="数据中台&lt;div&gt;指标原值&lt;/div&gt;" style="shape=cylinder3;whiteSpace=wrap;html=1;boundedLbl=1;backgroundOutline=1;size=15;" vertex="1" parent="1">
          <mxGeometry x="70" y="110" width="90" height="130" as="geometry" />
        </mxCell>
        <mxCell id="62KSsjE5slRflY_eG6V0-6" style="edgeStyle=orthogonalEdgeStyle;rounded=0;orthogonalLoop=1;jettySize=auto;html=1;" edge="1" parent="1" source="62KSsjE5slRflY_eG6V0-3" target="62KSsjE5slRflY_eG6V0-5">
          <mxGeometry relative="1" as="geometry" />
        </mxCell>
        <mxCell id="62KSsjE5slRflY_eG6V0-3" value="打分函数" style="rhombus;whiteSpace=wrap;html=1;" vertex="1" parent="1">
          <mxGeometry x="200" y="135" width="80" height="80" as="geometry" />
        </mxCell>
        <mxCell id="62KSsjE5slRflY_eG6V0-5" value="数据中台&lt;div&gt;指标分&lt;/div&gt;" style="shape=cylinder3;whiteSpace=wrap;html=1;boundedLbl=1;backgroundOutline=1;size=15;" vertex="1" parent="1">
          <mxGeometry x="320" y="110" width="90" height="130" as="geometry" />
        </mxCell>
      </root>
    </mxGraphModel>
  </diagram>
</mxfile>
